# xmcd
#
# Track frame offsets:
#	150
#	11957
#	24593
#	37457
#	50213
#	64406
#	76324
#	87262
#	99511
#	110347
#	122789
#	135112
#	146635
#	157518
#	180801
#
# Disc length: 2443 seconds
# Revision: 0
# Processed by: cddbd v1.5.2PL0 Copyright (c) Steve Scherf et al.
# Submitted via: dBpowerAMP V12.0
#
DISCID=c309890f
DTITLE=Gene Autry - Playlist: The Very Best Of Gene Autry
DYEAR=2011
DGENRE=Country
TTITLE0=Back In The Saddle Again
TTITLE1=That Silver-Haired Daddy Of Mine
TTITLE2=You're The Only Star (In My Blue Heaven)
TTITLE3=South Of The Border (Down Mexico Way)
TTITLE4=Mexicali Rose
TTITLE5=Blueberry Hill
TTITLE6=You Are My Sunshine
TTITLE7=I Hang My Head And Cry
TTITLE8=I'm Thinking Tonight Of My Blue Eyes
TTITLE9=At Mail Call Today
TTITLE10=Have I Told You Lately That I Love You
TTITLE11=Don't Fence Me In
TTITLE12=Red River Valley
TTITLE13=Home On The Range
TTITLE14=DATA
EXTD=
EXTT0=
EXTT1=
EXTT2=
EXTT3=
EXTT4=
EXTT5=
EXTT6=
EXTT7=
EXTT8=
EXTT9=
EXTT10=
EXTT11=
EXTT12=
EXTT13=
EXTT14=
PLAYORDER=
